<?xml version="1.0" encoding="UTF-8" standalone="no"?>
<!-- Created with Inkscape (http://www.inkscape.org/) -->
<svg id="svg2" xmlns:rdf="http://www.w3.org/1999/02/22-rdf-syntax-ns#" xmlns="http://www.w3.org/2000/svg" height="99.625" width="90.898" version="1.1" xmlns:cc="http://creativecommons.org/ns#" xmlns:dc="http://purl.org/dc/elements/1.1/">
 <metadata id="metadata7">
  <rdf:RDF>
   <cc:Work rdf:about="">
    <dc:format>image/svg+xml</dc:format>
    <dc:type rdf:resource="http://purl.org/dc/dcmitype/StillImage"/>
    <dc:title/>
   </cc:Work>
  </rdf:RDF>
 </metadata>
 <g id="layer1" transform="translate(-2.1880986,-952.11447)">
  <g id="g3913">
   <path id="path3885" fill="#00ab9c" d="m27.976,952.12s-23.734,25.235-25.656,46.466c-0.022428,0.24768-0.036581,0.49471-0.052911,0.7413-0.043439,0.60466-0.079475,1.211-0.079475,1.8268,0,13.903,11.276,25.153,25.179,25.153s25.153-11.25,25.153-25.153c0-9.2625-4.993-17.339-12.444-21.711-0.0258-0.0205-0.05367-0.0328-0.07947-0.0535-8.0537-6.3371-15.762-7.9009-12.02-27.271z"/>
   <path id="path3099" d="m65.867,971.52c-6.7822,0-12.99,2.4947-17.75,6.5938,4.594,3.9287,8.422,8.5452,9.7812,14.75,3.1367,10.067-0.33777,20.973-7.4062,28.281,0.53364,0.3665,1.0647,0.7025,1.625,1.0312,0.02789,0.022,0.06586,0.039,0.09375,0.062,8.7063,6.8506,17.014,8.5604,12.969,29.5,0,0,25.672-27.298,27.75-50.25,0.02425-0.2677,0.04485-0.5147,0.0625-0.7812,0.04696-0.6537,0.09375-1.3344,0.09375-2,0-15.029-12.189-27.188-27.219-27.188z" fill="#00544b"/>
   <path id="path4395" d="m-70.535,135.45c0,2.3729-1.9236,4.2965-4.2965,4.2965s-4.2965-1.9236-4.2965-4.2965,1.9236-4.2965,4.2965-4.2965,4.2965,1.9236,4.2965,4.2965z" fill-rule="evenodd" transform="matrix(1.0240511,0,0,1.0240511,119.26158,828.75149)" fill="#00ab9c"/>
  </g>
 </g>
</svg>
