<?xml version="1.0" encoding="UTF-8" standalone="no"?>
<!-- Created with Inkscape (http://www.inkscape.org/) -->
<svg id="svg2" xmlns:rdf="http://www.w3.org/1999/02/22-rdf-syntax-ns#" xmlns="http://www.w3.org/2000/svg" height="337.77" width="39.139" version="1.1" xmlns:cc="http://creativecommons.org/ns#" xmlns:xlink="http://www.w3.org/1999/xlink" xmlns:dc="http://purl.org/dc/elements/1.1/">
 <defs id="defs4"></defs>
 <metadata id="metadata7">
  <rdf:RDF>
   <cc:Work rdf:about="">
    <dc:format>image/svg+xml</dc:format>
    <dc:type rdf:resource="http://purl.org/dc/dcmitype/StillImage"/>
    <dc:title/>
   </cc:Work>
  </rdf:RDF>
 </metadata>
 <flowRoot id="flowRoot4118" font-size="40px" font-family="Liberation Sans" transform="translate(-648.685,-715.28995)" xml:space="preserve" style="letter-spacing:0px;word-spacing:0px;" font-style="normal" font-stretch="normal" font-variant="normal" font-weight="normal" line-height="125%" fill="#000000"><flowRegion id="flowRegion4120"><rect id="rect4122" y="454.06" x="552.12" width="380.31" height="68.389"/></flowRegion><flowPara id="flowPara4124"/></flowRoot>
 <g id="text4214" font-size="40px" font-family="Liberation Sans" transform="translate(-642.685,-432.3347)" font-style="normal" font-stretch="normal" font-variant="normal" font-weight="normal" style="letter-spacing:0px;word-spacing:0px;" line-height="125%" fill="#d6fff8">
  <path id="path4219" fill="#d6fff8" d="m658.67,770.1-15.985,0,0-336.4,14.848,0,0,8.59c2.5409-4.0579,4.8259-6.7316,6.8549-8.0211,2.029-1.2894,4.3329-1.9341,6.9118-1.9342,3.6407,0.00006,7.1488,1.0051,10.524,3.015l-4.9492,13.937c-2.6927-1.7445-5.1957-2.6168-7.5091-2.6168-2.2376,0.00005-4.1338,0.61633-5.6887,1.8488-1.5549,1.2326-2.778,3.4607-3.6692,6.6842-0.89126,3.2236-1.3368,9.9742-1.3368,20.252z"/>
 </g>
</svg>
